<svg width="132" height="27" viewBox="0 0 132 27" fill="none" xmlns="http://www.w3.org/2000/svg">
<path d="M4.89131 0.987244H9.25534L13.883 25.9999H10.0461L9.35785 21.5187H4.7888L4.1298 25.9999H0.27832L4.89131 0.987244ZM8.91852 18.663L7.16119 6.20065H7.0001L5.22813 18.663H8.91852Z" fill="white"/>
<path d="M17.5136 0.987244H21.3065V25.9999H17.5136V0.987244Z" fill="white"/>
<path d="M26.797 0.987244H30.7363C31.3319 0.987244 31.9469 1.00677 32.5815 1.04582C33.2259 1.07511 33.8507 1.17762 34.456 1.35335C35.0711 1.52909 35.6471 1.80245 36.1841 2.17344C36.7308 2.53467 37.2092 3.04722 37.6192 3.7111C38.0293 4.36522 38.3514 5.19507 38.5857 6.20065C38.8298 7.19647 38.9519 8.41684 38.9519 9.86176V17.1254C38.9519 18.5703 38.8298 19.7955 38.5857 20.8011C38.3514 21.8067 38.0293 22.6366 37.6192 23.2907C37.2092 23.9448 36.7308 24.4573 36.1841 24.8283C35.6471 25.1896 35.0711 25.458 34.456 25.6338C33.8507 25.8095 33.2259 25.9169 32.5815 25.956C31.9469 25.9852 31.3319 25.9999 30.7363 25.9999H26.797V0.987244ZM31.5564 23.3493C32.2398 23.3493 32.8012 23.2614 33.2405 23.0857C33.6896 22.9099 34.0411 22.6024 34.2949 22.1631C34.5585 21.714 34.7391 21.1087 34.8368 20.3472C34.9344 19.5759 34.9832 18.6045 34.9832 17.4329V9.67138C34.9832 8.49983 34.9344 7.53329 34.8368 6.77178C34.7391 6.00051 34.5585 5.39521 34.2949 4.95588C34.0411 4.50678 33.6896 4.19437 33.2405 4.01864C32.8012 3.8429 32.2398 3.75504 31.5564 3.75504H30.5899V23.3493H31.5564Z" fill="white"/>
<path d="M49.0846 26.2196C48.6843 26.2196 48.2499 26.1854 47.7813 26.117C47.3126 26.0585 46.8489 25.9267 46.39 25.7216C45.9312 25.5166 45.487 25.2286 45.0574 24.8576C44.6376 24.4769 44.2617 23.979 43.9298 23.3639C43.6076 22.7488 43.3489 21.9922 43.1536 21.094C42.9584 20.1861 42.8607 19.1073 42.8607 17.8576V8.99774C42.8607 7.73832 42.9584 6.66439 43.1536 5.77597C43.3586 4.87777 43.6271 4.12603 43.9591 3.52073C44.291 2.90566 44.6669 2.41751 45.0867 2.05629C45.5163 1.69506 45.9605 1.42169 46.4193 1.2362C46.888 1.04094 47.3517 0.914022 47.8105 0.855445C48.2694 0.796867 48.6941 0.767578 49.0846 0.767578C49.4556 0.767578 49.8656 0.796867 50.3147 0.855445C50.7736 0.904259 51.2276 1.02141 51.6767 1.20691C52.1355 1.38264 52.5797 1.65112 53.0093 2.01235C53.4389 2.36382 53.8196 2.84708 54.1516 3.46215C54.4835 4.06745 54.7471 4.82408 54.9424 5.73203C55.1474 6.63022 55.2499 7.71879 55.2499 8.99774V17.8576C55.2499 19.0975 55.1474 20.1665 54.9424 21.0647C54.7374 21.9532 54.4689 22.7098 54.1369 23.3346C53.805 23.9497 53.4194 24.4476 52.98 24.8283C52.5505 25.1993 52.1062 25.4922 51.6474 25.707C51.1983 25.912 50.7492 26.0487 50.3001 26.117C49.851 26.1854 49.4458 26.2196 49.0846 26.2196ZM49.0846 23.3639C49.4556 23.3639 49.7778 23.3004 50.0511 23.1735C50.3343 23.0466 50.5637 22.8269 50.7394 22.5145C50.9249 22.2021 51.0616 21.7921 51.1495 21.2844C51.2471 20.767 51.2959 20.1177 51.2959 19.3367V7.95798C51.2959 7.15742 51.2471 6.48866 51.1495 5.9517C51.0616 5.41474 50.9249 4.98517 50.7394 4.66299C50.5637 4.33105 50.3343 4.09674 50.0511 3.96006C49.7778 3.82338 49.4556 3.75504 49.0846 3.75504C48.7039 3.75504 48.3719 3.82338 48.0888 3.96006C47.8057 4.09674 47.5714 4.33105 47.3859 4.66299C47.2004 4.98517 47.0588 5.41474 46.9612 5.9517C46.8733 6.48866 46.8294 7.15742 46.8294 7.95798V19.3367C46.8294 20.1177 46.8733 20.767 46.9612 21.2844C47.0588 21.7921 47.2004 22.2021 47.3859 22.5145C47.5714 22.8269 47.8057 23.0466 48.0888 23.1735C48.3719 23.3004 48.7039 23.3639 49.0846 23.3639Z" fill="white"/>
<path d="M65.0898 26.2342C64.7969 26.2342 64.4552 26.2 64.0647 26.1317C63.6742 26.0731 63.269 25.9413 62.8492 25.7363C62.4391 25.5313 62.034 25.2433 61.6337 24.8723C61.2334 24.4915 60.8722 23.9936 60.55 23.3785C60.2376 22.7537 59.9838 21.9922 59.7885 21.094C59.5932 20.1861 59.4956 19.1073 59.4956 17.8576V8.99774C59.4956 7.73832 59.5981 6.66439 59.8032 5.77597C60.0082 4.87777 60.2815 4.12603 60.6232 3.52073C60.9649 2.90566 61.3555 2.41751 61.7948 2.05629C62.2439 1.69506 62.7076 1.42169 63.186 1.2362C63.6644 1.04094 64.1379 0.914022 64.6065 0.855445C65.0751 0.796867 65.5096 0.767578 65.9099 0.767578C66.9252 0.767578 67.7795 0.909141 68.4726 1.19227C69.1756 1.46563 69.7418 1.84638 70.1714 2.33453C70.6107 2.81291 70.9231 3.37428 71.1086 4.01864C71.3039 4.66299 71.4015 5.3464 71.4015 6.06885C71.4015 6.60581 71.3674 7.10372 71.299 7.56258C71.2404 8.01168 71.1574 8.50959 71.0501 9.05631H68.0187V7.87012C68.0187 5.12673 67.2816 3.75504 65.8074 3.75504C65.4071 3.75504 65.0605 3.82338 64.7676 3.96006C64.4747 4.09674 64.2306 4.33105 64.0354 4.66299C63.8401 4.98517 63.6937 5.41474 63.5961 5.9517C63.5082 6.48866 63.4642 7.15742 63.4642 7.95798V19.2928C63.4642 20.0738 63.5082 20.723 63.5961 21.2405C63.6937 21.7579 63.8352 22.1728 64.0207 22.4852C64.216 22.7976 64.4552 23.0222 64.7383 23.1589C65.0312 23.2858 65.3778 23.3493 65.7781 23.3493C66.1979 23.3493 66.5591 23.2419 66.8618 23.0271C67.1644 22.8025 67.4134 22.4999 67.6086 22.1191C67.8039 21.7384 67.9454 21.2893 68.0333 20.7718C68.1309 20.2544 68.1797 19.693 68.1797 19.0877V15.822H66.232V13.3325H71.8701V25.9999H69.3513L68.9413 23.6275C68.4629 24.555 67.9113 25.2237 67.2864 25.6338C66.6714 26.0341 65.9392 26.2342 65.0898 26.2342Z" fill="white"/>
<path d="M76.5845 0.987244H85.8544V3.9747H80.3774V11.458H84.6096V14.4455H80.3774V23.0124H86.0008V25.9999H76.5845V0.987244Z" fill="white"/>
<path d="M89.939 0.987244H93.7319V23.0124H98.9014V25.9999H89.939V0.987244Z" fill="white"/>
<path d="M108.038 26.2196C107.638 26.2196 107.204 26.1854 106.735 26.117C106.266 26.0585 105.803 25.9267 105.344 25.7216C104.885 25.5166 104.441 25.2286 104.011 24.8576C103.591 24.4769 103.215 23.979 102.883 23.3639C102.561 22.7488 102.303 21.9922 102.107 21.094C101.912 20.1861 101.814 19.1073 101.814 17.8576V8.99774C101.814 7.73832 101.912 6.66439 102.107 5.77597C102.312 4.87777 102.581 4.12603 102.913 3.52073C103.245 2.90566 103.621 2.41751 104.04 2.05629C104.47 1.69506 104.914 1.42169 105.373 1.2362C105.842 1.04094 106.305 0.914022 106.764 0.855445C107.223 0.796867 107.648 0.767578 108.038 0.767578C108.409 0.767578 108.819 0.796867 109.268 0.855445C109.727 0.904259 110.181 1.02141 110.63 1.20691C111.089 1.38264 111.533 1.65112 111.963 2.01235C112.393 2.36382 112.773 2.84708 113.105 3.46215C113.437 4.06745 113.701 4.82408 113.896 5.73203C114.101 6.63022 114.204 7.71879 114.204 8.99774V17.8576C114.204 19.0975 114.101 20.1665 113.896 21.0647C113.691 21.9532 113.423 22.7098 113.091 23.3346C112.759 23.9497 112.373 24.4476 111.934 24.8283C111.504 25.1993 111.06 25.4922 110.601 25.707C110.152 25.912 109.703 26.0487 109.254 26.117C108.805 26.1854 108.4 26.2196 108.038 26.2196ZM108.038 23.3639C108.409 23.3639 108.731 23.3004 109.005 23.1735C109.288 23.0466 109.517 22.8269 109.693 22.5145C109.879 22.2021 110.015 21.7921 110.103 21.2844C110.201 20.767 110.25 20.1177 110.25 19.3367V7.95798C110.25 7.15742 110.201 6.48866 110.103 5.9517C110.015 5.41474 109.879 4.98517 109.693 4.66299C109.517 4.33105 109.288 4.09674 109.005 3.96006C108.731 3.82338 108.409 3.75504 108.038 3.75504C107.658 3.75504 107.326 3.82338 107.042 3.96006C106.759 4.09674 106.525 4.33105 106.34 4.66299C106.154 4.98517 106.013 5.41474 105.915 5.9517C105.827 6.48866 105.783 7.15742 105.783 7.95798V19.3367C105.783 20.1177 105.827 20.767 105.915 21.2844C106.013 21.7921 106.154 22.2021 106.34 22.5145C106.525 22.8269 106.759 23.0466 107.042 23.1735C107.326 23.3004 107.658 23.3639 108.038 23.3639Z" fill="white"/>
<path d="M118.991 0.987244H122.066L128.129 17.7258H128.217C128.188 17.3353 128.149 16.9008 128.1 16.4224C128.051 15.9441 128.007 15.4022 127.968 14.7969C127.929 14.1819 127.895 13.4887 127.866 12.7174C127.836 11.9461 127.822 11.0772 127.822 10.1107V0.987244H131.219V25.9999H128.115L122.081 9.70067H121.964C121.993 10.14 122.032 10.6184 122.081 11.1358C122.13 11.6435 122.174 12.2439 122.213 12.9371C122.252 13.6302 122.286 14.4406 122.315 15.3681C122.345 16.2858 122.359 17.3792 122.359 18.6484V25.9999H118.991V0.987244Z" fill="white"/>
</svg>
